<svg width="1513" height="161" viewBox="0 0 1513 161" fill="none" xmlns="http://www.w3.org/2000/svg">
<path d="M0.332031 13.3516C4.4987 14.3932 8.47005 15.1745 12.2461 15.6953C16.0221 16.2161 19.3424 16.6068 22.207 16.8672C25.5924 17.2578 28.7174 17.388 31.582 17.2578C35.2279 17.2578 39.7852 16.9323 45.2539 16.2812C50.8529 15.6302 56.582 15.0443 62.4414 14.5234C68.3008 13.8724 73.8997 13.4818 79.2383 13.3516C84.707 13.0911 89.1341 13.4167 92.5195 14.3281C95.9049 15.1094 99.3555 16.3464 102.871 18.0391C106.517 19.6016 109.837 21.6198 112.832 24.0938C115.827 26.4375 118.301 29.237 120.254 32.4922C122.207 35.6172 123.314 39.1979 123.574 43.2344C123.444 48.3125 122.272 53.0651 120.059 57.4922C118.236 61.2682 115.176 65.1745 110.879 69.2109C106.582 73.1172 100.397 76.112 92.3242 78.1953C96.3607 78.7161 99.8112 79.6276 102.676 80.9297C105.671 82.1016 108.21 83.5339 110.293 85.2266C112.507 86.7891 114.264 88.5469 115.566 90.5C116.999 92.4531 118.105 94.4062 118.887 96.3594C120.84 100.917 121.751 105.995 121.621 111.594C120.84 118.885 119.342 124.68 117.129 128.977C115.046 133.273 112.637 136.594 109.902 138.938C107.168 141.281 104.368 142.909 101.504 143.82C98.6393 144.732 96.0352 145.448 93.6914 145.969C91.3477 146.49 88.4831 146.75 85.0977 146.75C81.7122 146.75 78.0664 146.685 74.1602 146.555C70.3841 146.294 66.4779 146.099 62.4414 145.969C58.4049 145.708 54.5638 145.708 50.918 145.969C47.9232 146.229 44.2773 146.49 39.9805 146.75C36.3346 147.01 31.7773 147.336 26.3086 147.727C20.8398 147.987 14.4596 148.312 7.16797 148.703C8.60026 147.661 9.77214 146.49 10.6836 145.188C11.7253 143.755 12.5716 142.518 13.2227 141.477C13.8737 140.174 14.4596 138.938 14.9805 137.766C15.3711 136.724 15.6966 133.859 15.957 129.172C16.2174 124.484 16.4128 118.885 16.543 112.375C16.6732 105.734 16.7383 98.638 16.7383 91.0859C16.8685 83.4036 16.8034 76.0469 16.543 69.0156C16.4128 61.8542 16.1523 55.5391 15.7617 50.0703C15.5013 44.4714 15.1107 40.4349 14.5898 37.9609C13.8086 35.2266 12.7669 32.4271 11.4648 29.5625C10.4232 27.0885 8.92578 24.4193 6.97266 21.5547C5.14974 18.6901 2.9362 15.9557 0.332031 13.3516ZM41.543 33.2734C41.543 33.7943 41.6081 35.5521 41.7383 38.5469C41.8685 41.151 41.9987 45.1875 42.1289 50.6562C42.3893 55.9948 42.7148 63.612 43.1055 73.5078C46.3607 74.9401 49.5508 75.7214 52.6758 75.8516C55.8008 75.8516 58.6003 75.7214 61.0742 75.4609C63.9388 75.0703 66.6732 74.4193 69.2773 73.5078C72.793 72.0755 75.5273 69.7318 77.4805 66.4766C79.5638 63.2214 80.931 59.8359 81.582 56.3203C82.3633 52.6745 82.5586 49.2891 82.168 46.1641C81.7773 42.9089 80.931 40.5651 79.6289 39.1328C77.1549 36.9193 74.0951 35.0964 70.4492 33.6641C67.3242 32.4922 63.3529 31.7109 58.5352 31.3203C53.8477 30.7995 48.1836 31.4505 41.543 33.2734ZM40.5664 125.852C45.3841 128.326 49.6159 129.953 53.2617 130.734C56.9076 131.516 59.9674 131.906 62.4414 131.906C65.306 131.906 67.7799 131.516 69.8633 130.734C72.3372 129.562 74.7461 128 77.0898 126.047C79.5638 123.964 81.3867 121.555 82.5586 118.82C83.8607 115.956 84.3815 112.831 84.1211 109.445C83.8607 105.93 82.3633 102.089 79.6289 97.9219C77.1549 94.9271 74.1602 92.5833 70.6445 90.8906C67.5195 89.4583 63.5482 88.5469 58.7305 88.1562C54.043 87.7656 48.2487 88.8724 41.3477 91.4766L40.5664 125.852ZM132.559 65.6953L168.496 66.0859C166.413 74.0286 164.85 80.7995 163.809 86.3984C162.897 91.9974 162.311 96.6849 162.051 100.461C161.53 104.758 161.4 108.404 161.66 111.398C162.051 114.133 162.702 117.062 163.613 120.188C164.395 122.792 165.566 125.786 167.129 129.172C168.691 132.557 170.775 135.943 173.379 139.328C171.816 138.807 170.124 138.417 168.301 138.156C166.478 137.896 164.785 137.701 163.223 137.57C161.4 137.44 159.577 137.44 157.754 137.57C155.931 137.701 153.913 137.896 151.699 138.156C149.876 138.417 147.663 138.742 145.059 139.133C142.454 139.523 139.72 140.044 136.855 140.695C138.809 134.836 140.306 129.758 141.348 125.461C142.52 121.164 143.366 117.583 143.887 114.719C144.408 111.333 144.733 108.599 144.863 106.516C144.863 103.911 144.863 100.982 144.863 97.7266C144.863 94.3411 144.863 91.0859 144.863 87.9609C144.863 84.8359 144.798 82.1016 144.668 79.7578C144.538 77.2839 144.277 75.7214 143.887 75.0703L141.934 73.1172C141.152 72.4661 139.98 71.5547 138.418 70.3828C136.986 69.0807 135.033 67.5182 132.559 65.6953ZM146.426 35.6172C149.16 34.1849 151.895 33.7943 154.629 34.4453C157.493 35.0964 159.707 36.3333 161.27 38.1562C162.832 39.9792 163.353 42.1276 162.832 44.6016C162.441 47.0755 160.358 49.4844 156.582 51.8281C152.806 54.0417 149.486 54.8229 146.621 54.1719C143.757 53.5208 141.738 52.1536 140.566 50.0703C139.395 47.987 139.199 45.5781 139.98 42.8438C140.762 39.9792 142.91 37.5703 146.426 35.6172ZM178.457 59.4453C180.931 59.5755 183.145 59.6406 185.098 59.6406C187.181 59.5104 188.939 59.3802 190.371 59.25C192.064 59.1198 193.561 58.9896 194.863 58.8594C196.816 58.599 198.835 58.2734 200.918 57.8828C202.741 57.6224 204.629 57.2969 206.582 56.9062C208.665 56.3854 210.684 55.7995 212.637 55.1484C211.855 57.1016 211.204 58.7943 210.684 60.2266C210.163 61.6589 209.772 62.8958 209.512 63.9375C209.121 65.1094 208.926 66.0859 208.926 66.8672C208.796 67.7786 208.73 68.8854 208.73 70.1875C208.6 72.401 208.6 75.9818 208.73 80.9297C215.501 75.0703 221.165 70.513 225.723 67.2578C230.41 64.0026 234.121 61.4635 236.855 59.6406C240.111 57.5573 242.65 56.1901 244.473 55.5391C249.29 54.7578 253.522 55.8646 257.168 58.8594C258.73 60.1615 260.228 61.9193 261.66 64.1328C263.092 66.2161 264.329 69.0156 265.371 72.5312C266.413 76.0469 267.194 80.2786 267.715 85.2266C268.236 90.0443 268.301 95.8385 267.91 102.609C265.176 102.87 262.702 103.13 260.488 103.391C258.405 103.651 256.647 103.846 255.215 103.977C253.522 104.237 251.96 104.367 250.527 104.367L245.254 104.953C243.431 105.214 241.152 105.474 238.418 105.734C235.814 105.865 232.624 106.125 228.848 106.516C234.316 102.089 237.832 98.2474 239.395 94.9922C241.087 91.6068 241.803 88.8073 241.543 86.5938C241.283 84.1198 240.111 81.9714 238.027 80.1484C235.553 78.7161 232.884 78.1953 230.02 78.5859C227.546 78.8464 224.681 79.9531 221.426 81.9062C218.171 83.8594 214.72 87.5052 211.074 92.8438C211.335 101.177 211.595 108.078 211.855 113.547C212.246 119.016 212.572 123.443 212.832 126.828C213.223 130.734 213.548 133.794 213.809 136.008C214.199 137.961 214.98 140.044 216.152 142.258C217.064 144.081 218.366 146.099 220.059 148.312C221.751 150.526 223.965 152.74 226.699 154.953C220.97 154.693 216.283 154.693 212.637 154.953C210.423 155.083 208.47 155.214 206.777 155.344C204.954 155.604 203.001 155.865 200.918 156.125C199.095 156.385 196.947 156.646 194.473 156.906C192.129 157.297 189.525 157.688 186.66 158.078C187.702 156.646 188.548 154.953 189.199 153C189.85 151.177 190.371 149.419 190.762 147.727C191.283 145.773 191.673 143.755 191.934 141.672C192.064 139.849 192.129 137.115 192.129 133.469C192.259 129.823 192.194 125.721 191.934 121.164C191.803 116.477 191.608 111.659 191.348 106.711C191.087 101.633 190.762 96.8802 190.371 92.4531C189.98 88.026 189.525 84.1849 189.004 80.9297C188.613 77.5443 188.158 75.2005 187.637 73.8984C186.986 72.3359 186.204 70.7734 185.293 69.2109C184.512 67.7786 183.535 66.2812 182.363 64.7188C181.191 63.026 179.889 61.2682 178.457 59.4453ZM372.012 3.39062C374.486 3.52083 377.155 3.58594 380.02 3.58594C382.493 3.58594 385.293 3.65104 388.418 3.78125C391.673 3.78125 395.059 3.65104 398.574 3.39062C395.449 4.82292 392.715 6.90625 390.371 9.64062C388.027 12.375 386.139 15.1094 384.707 17.8438C382.884 21.099 381.387 24.4844 380.215 28C379.564 30.0833 379.043 33.7943 378.652 39.1328C378.262 44.3411 377.936 50.4609 377.676 57.4922C377.546 64.5234 377.48 71.9453 377.48 79.7578C377.48 87.5703 377.546 95.0573 377.676 102.219C377.806 109.25 378.001 115.5 378.262 120.969C378.522 126.438 378.848 130.279 379.238 132.492C379.759 135.096 380.41 137.57 381.191 139.914C381.842 141.997 382.689 144.146 383.73 146.359C384.772 148.443 386.074 150.135 387.637 151.438L367.715 160.422C366.673 158.99 365.827 157.492 365.176 155.93C364.525 154.497 364.004 153.195 363.613 152.023C363.092 150.591 362.767 149.289 362.637 148.117C362.376 146.555 362.116 144.862 361.855 143.039C361.595 141.086 361.27 139.263 360.879 137.57C360.618 135.747 360.423 134.25 360.293 133.078C360.163 131.906 360.163 131.19 360.293 130.93C360.423 130.669 359.642 131.841 357.949 134.445C356.257 136.919 353.717 139.849 350.332 143.234C347.077 146.49 343.04 149.68 338.223 152.805C333.405 155.799 328.001 157.688 322.012 158.469C315.892 159.25 310.228 158.078 305.02 154.953C299.941 151.828 295.579 147.466 291.934 141.867C288.288 136.138 285.488 129.562 283.535 122.141C281.712 114.589 280.996 106.906 281.387 99.0938C281.647 93.8854 282.819 89.263 284.902 85.2266C286.986 81.0599 289.59 77.4792 292.715 74.4844C295.97 71.3594 299.486 68.7552 303.262 66.6719C307.168 64.4583 310.944 62.6354 314.59 61.2031C318.366 59.7708 321.882 58.7292 325.137 58.0781C328.392 57.4271 330.996 56.9714 332.949 56.7109C335.293 56.5807 337.962 56.9714 340.957 57.8828C343.561 58.6641 346.556 59.9661 349.941 61.7891C353.457 63.612 357.363 66.3464 361.66 69.9922C360.879 56.9714 360.163 46.5547 359.512 38.7422C358.861 30.7995 358.21 24.7448 357.559 20.5781C356.908 15.6302 356.322 12.2448 355.801 10.4219C355.15 9.11979 354.303 7.81771 353.262 6.51562C352.35 5.47396 351.178 4.43229 349.746 3.39062C348.444 2.21875 346.882 1.30729 345.059 0.65625C348.444 1.30729 351.699 1.76302 354.824 2.02344C357.949 2.28385 360.814 2.54427 363.418 2.80469C366.413 3.0651 369.277 3.26042 372.012 3.39062ZM322.988 76.2422C320.514 77.1536 318.496 78.7161 316.934 80.9297C315.501 83.1432 314.329 85.8125 313.418 88.9375C312.507 91.9323 311.855 95.1875 311.465 98.7031C311.204 102.089 311.009 105.409 310.879 108.664C310.879 111.789 310.879 114.654 310.879 117.258C310.879 119.862 310.879 121.815 310.879 123.117C310.879 123.898 311.009 125.331 311.27 127.414C311.66 129.367 312.441 131.451 313.613 133.664C314.785 135.747 316.413 137.635 318.496 139.328C320.71 141.021 323.639 141.867 327.285 141.867C330.28 141.607 333.47 140.565 336.855 138.742C339.85 137.18 343.236 134.706 347.012 131.32C350.918 127.805 355.085 122.792 359.512 116.281C359.251 112.115 359.056 108.664 358.926 105.93C358.926 103.195 358.861 100.982 358.73 99.2891C358.6 97.3359 358.535 95.7734 358.535 94.6016V91.6719C358.535 90.8906 358.535 90.0443 358.535 89.1328C358.535 88.2214 358.6 87.375 358.73 86.5938C355.085 83.9896 351.829 81.776 348.965 79.9531C346.23 78 343.496 76.5677 340.762 75.6562C338.158 74.6146 335.423 74.1589 332.559 74.2891C329.824 74.2891 326.634 74.9401 322.988 76.2422ZM463.027 158.469C464.329 156.516 465.371 154.693 466.152 153C466.934 151.307 467.585 149.875 468.105 148.703C468.626 147.271 469.017 145.969 469.277 144.797C469.408 144.016 469.473 141.737 469.473 137.961C469.473 134.185 469.342 129.432 469.082 123.703C468.952 117.974 468.757 111.529 468.496 104.367C468.366 97.2057 468.105 89.9141 467.715 82.4922C467.454 75.0703 467.129 67.8438 466.738 60.8125C466.478 53.7812 466.217 47.4661 465.957 41.8672C465.697 36.138 465.436 31.4505 465.176 27.8047C464.915 24.1589 464.72 22.0755 464.59 21.5547C464.329 20.7734 463.874 19.9922 463.223 19.2109C461.921 17.6484 459.707 16.151 456.582 14.7188C463.223 13.026 468.301 11.6589 471.816 10.6172C473.9 10.0964 475.723 9.57552 477.285 9.05469C478.717 8.53385 480.15 8.01302 481.582 7.49219C482.754 6.97135 484.056 6.38542 485.488 5.73438C486.921 4.95312 488.223 4.10677 489.395 3.19531C488.743 6.97135 488.223 10.6172 487.832 14.1328C487.441 17.6484 487.116 20.9036 486.855 23.8984C486.595 27.2839 486.465 30.5391 486.465 33.6641C485.814 40.0443 485.423 47.0104 485.293 54.5625C485.293 61.9844 485.358 69.5365 485.488 77.2188C485.618 84.901 485.879 92.388 486.27 99.6797C486.66 106.971 487.051 113.612 487.441 119.602C487.962 125.461 488.418 130.474 488.809 134.641C489.329 138.677 489.72 141.281 489.98 142.453C490.501 144.406 491.022 146.294 491.543 148.117C492.064 149.68 492.65 151.307 493.301 153C493.952 154.823 494.733 156.255 495.645 157.297H476.699C475.007 157.297 473.379 157.362 471.816 157.492C470.384 157.622 468.887 157.753 467.324 157.883C465.762 158.013 464.329 158.208 463.027 158.469ZM502.676 65.6953L538.613 66.0859C536.53 74.0286 534.967 80.7995 533.926 86.3984C533.014 91.9974 532.428 96.6849 532.168 100.461C531.647 104.758 531.517 108.404 531.777 111.398C532.168 114.133 532.819 117.062 533.73 120.188C534.512 122.792 535.684 125.786 537.246 129.172C538.809 132.557 540.892 135.943 543.496 139.328C541.934 138.807 540.241 138.417 538.418 138.156C536.595 137.896 534.902 137.701 533.34 137.57C531.517 137.44 529.694 137.44 527.871 137.57C526.048 137.701 524.03 137.896 521.816 138.156C519.993 138.417 517.78 138.742 515.176 139.133C512.572 139.523 509.837 140.044 506.973 140.695C508.926 134.836 510.423 129.758 511.465 125.461C512.637 121.164 513.483 117.583 514.004 114.719C514.525 111.333 514.85 108.599 514.98 106.516C514.98 103.911 514.98 100.982 514.98 97.7266C514.98 94.3411 514.98 91.0859 514.98 87.9609C514.98 84.8359 514.915 82.1016 514.785 79.7578C514.655 77.2839 514.395 75.7214 514.004 75.0703L512.051 73.1172C511.27 72.4661 510.098 71.5547 508.535 70.3828C507.103 69.0807 505.15 67.5182 502.676 65.6953ZM516.543 35.6172C519.277 34.1849 522.012 33.7943 524.746 34.4453C527.611 35.0964 529.824 36.3333 531.387 38.1562C532.949 39.9792 533.47 42.1276 532.949 44.6016C532.559 47.0755 530.475 49.4844 526.699 51.8281C522.923 54.0417 519.603 54.8229 516.738 54.1719C513.874 53.5208 511.855 52.1536 510.684 50.0703C509.512 47.987 509.316 45.5781 510.098 42.8438C510.879 39.9792 513.027 37.5703 516.543 35.6172ZM537.637 45.3828C539.85 45.7734 542.129 46.099 544.473 46.3594C546.686 46.4896 548.704 46.6198 550.527 46.75C552.611 46.8802 554.629 46.9453 556.582 46.9453C558.535 46.9453 560.749 46.8802 563.223 46.75C565.306 46.6198 567.78 46.4245 570.645 46.1641C573.639 45.9036 576.895 45.513 580.41 44.9922C578.327 46.1641 576.699 47.401 575.527 48.7031C574.355 50.0052 573.444 51.1771 572.793 52.2188C572.012 53.5208 571.491 54.6927 571.23 55.7344C570.97 56.776 571.035 58.9245 571.426 62.1797C571.816 65.4349 572.337 69.2109 572.988 73.5078C573.77 77.8047 574.616 82.2969 575.527 86.9844C576.439 91.6719 577.35 95.9688 578.262 99.875C579.303 103.781 580.215 107.036 580.996 109.641C581.908 112.245 582.624 113.482 583.145 113.352C583.665 113.352 584.447 112.049 585.488 109.445C586.66 106.841 587.962 103.651 589.395 99.875C590.827 95.9688 592.324 91.737 593.887 87.1797C595.449 82.4922 596.816 78.1302 597.988 74.0938C599.16 70.0573 600.072 66.6719 600.723 63.9375C601.504 61.0729 601.829 59.3802 601.699 58.8594C601.309 58.3385 600.853 57.6224 600.332 56.7109C599.421 55.2786 597.402 52.8047 594.277 49.2891C598.053 49.5495 601.309 49.8099 604.043 50.0703C606.777 50.2005 608.991 50.3958 610.684 50.6562C612.637 50.9167 614.199 51.112 615.371 51.2422C616.543 51.3724 618.236 51.3724 620.449 51.2422C622.272 51.2422 624.681 51.1771 627.676 51.0469C630.801 50.7865 634.642 50.3958 639.199 49.875C635.814 51.8281 633.014 53.5859 630.801 55.1484C628.717 56.5807 627.09 57.8177 625.918 58.8594C624.486 60.1615 623.444 61.2682 622.793 62.1797C621.882 63.8724 620.254 67.9089 617.91 74.2891C616.868 77.0234 615.566 80.4089 614.004 84.4453C612.572 88.4818 610.814 93.3646 608.73 99.0938C606.777 104.693 604.434 111.268 601.699 118.82C598.965 126.372 595.905 135.031 592.52 144.797L573.574 146.75C571.1 138.547 569.082 131.711 567.52 126.242C566.087 120.643 564.915 116.151 564.004 112.766C562.962 108.859 562.181 105.799 561.66 103.586C561.009 101.112 560.228 97.5312 559.316 92.8438C558.405 88.026 557.493 83.1432 556.582 78.1953C555.671 73.2474 554.759 68.8203 553.848 64.9141C552.936 60.8776 552.22 58.4036 551.699 57.4922C551.178 56.8411 550.267 55.9297 548.965 54.7578C547.923 53.7161 546.491 52.4792 544.668 51.0469C542.845 49.4844 540.501 47.5964 537.637 45.3828ZM680.02 121.555C683.665 121.555 687.051 121.164 690.176 120.383C692.78 119.732 695.254 118.69 697.598 117.258C700.072 115.695 701.699 113.417 702.48 110.422C705.085 110.943 707.298 111.398 709.121 111.789C710.944 112.049 712.507 112.31 713.809 112.57C715.241 112.961 716.478 113.221 717.52 113.352C718.561 113.612 719.798 113.872 721.23 114.133C722.533 114.393 724.095 114.719 725.918 115.109C727.871 115.37 730.15 115.76 732.754 116.281C730.801 116.021 728.783 116.216 726.699 116.867C724.746 117.518 722.858 118.234 721.035 119.016C718.952 119.927 716.999 121.034 715.176 122.336C714.004 123.117 712.637 124.289 711.074 125.852C709.642 127.414 707.559 128.911 704.824 130.344C702.09 131.776 698.444 133.013 693.887 134.055C689.46 134.966 683.73 135.292 676.699 135.031C668.236 134.771 661.139 133.273 655.41 130.539C649.681 127.674 645.059 124.224 641.543 120.188C638.027 116.021 635.488 111.529 633.926 106.711C632.363 101.893 631.517 97.401 631.387 93.2344C631.257 89.0677 632.493 84.7057 635.098 80.1484C637.702 75.5911 641.348 71.4245 646.035 67.6484C650.853 63.8724 656.647 60.8125 663.418 58.4688C670.189 55.9948 677.611 54.7578 685.684 54.7578C690.371 54.7578 694.668 55.3438 698.574 56.5156C702.611 57.5573 706.257 58.9896 709.512 60.8125C712.897 62.6354 715.827 64.7188 718.301 67.0625C720.775 69.276 722.858 71.5547 724.551 73.8984C726.243 76.3724 727.676 78.9766 728.848 81.7109C729.889 84.0547 730.736 86.724 731.387 89.7188C732.038 92.7135 732.233 95.7734 731.973 98.8984C722.077 99.1589 714.069 99.3542 707.949 99.4844C701.96 99.6146 697.272 99.6797 693.887 99.6797H685.098H678.457C676.113 99.6797 673.053 99.7448 669.277 99.875C665.501 100.005 660.879 100.201 655.41 100.461C656.061 105.669 657.689 109.706 660.293 112.57C663.027 115.305 665.892 117.388 668.887 118.82C672.272 120.383 675.983 121.294 680.02 121.555ZM662.441 86.3984C666.608 86.6589 670.059 86.8542 672.793 86.9844C675.658 87.1146 678.001 87.2448 679.824 87.375C681.777 87.5052 683.34 87.5703 684.512 87.5703H689.395C692.65 87.5703 698.704 87.375 707.559 86.9844C707.168 81.2552 705.931 76.8932 703.848 73.8984C701.895 70.9036 699.811 68.6901 697.598 67.2578C694.993 65.6953 692.129 64.7839 689.004 64.5234C680.54 64.6536 674.225 66.4115 670.059 69.7969C666.022 73.1823 663.483 78.7161 662.441 86.3984ZM825.918 41.4766C824.746 44.3411 823.704 46.9453 822.793 49.2891C822.012 51.6328 821.296 53.7161 820.645 55.5391C819.993 57.6224 819.408 59.4453 818.887 61.0078C818.366 62.8307 817.78 64.9141 817.129 67.2578C816.478 69.3411 815.632 71.9453 814.59 75.0703C813.678 78.0651 812.572 81.6458 811.27 85.8125C810.228 79.5625 808.34 74.6146 805.605 70.9688C802.871 67.1927 800.072 64.263 797.207 62.1797C793.822 59.8359 790.176 58.1432 786.27 57.1016C779.238 55.9297 774.16 56.0599 771.035 57.4922C767.91 58.9245 765.827 60.7474 764.785 62.9609C764.264 63.8724 763.678 65.0443 763.027 66.4766C762.507 67.7786 762.051 69.1458 761.66 70.5781C761.4 72.0104 761.335 73.4427 761.465 74.875C761.595 76.3073 762.181 77.4792 763.223 78.3906C763.874 79.0417 765.566 79.9531 768.301 81.125C771.035 82.1667 774.29 83.4036 778.066 84.8359C781.973 86.138 786.074 87.5703 790.371 89.1328C794.798 90.6953 798.965 92.2578 802.871 93.8203C806.777 95.3828 810.163 96.9453 813.027 98.5078C815.892 100.07 817.78 101.503 818.691 102.805C819.473 104.107 820.319 105.865 821.23 108.078C822.272 110.161 822.988 112.505 823.379 115.109C823.9 117.583 824.03 120.188 823.77 122.922C823.639 125.526 822.923 128.13 821.621 130.734C820.319 133.339 818.236 135.747 815.371 137.961C812.637 140.174 808.926 141.997 804.238 143.43C798.77 145.122 793.496 145.578 788.418 144.797C783.34 144.016 778.652 142.844 774.355 141.281C770.189 139.719 766.543 138.221 763.418 136.789C760.293 135.227 758.079 134.576 756.777 134.836C755.345 135.096 753.717 135.812 751.895 136.984C750.072 138.156 748.314 139.393 746.621 140.695C745.059 141.867 743.691 142.974 742.52 144.016C741.348 144.927 740.762 145.253 740.762 144.992C740.762 144.732 740.957 143.951 741.348 142.648C741.868 141.346 742.389 139.784 742.91 137.961C743.561 136.008 744.147 133.924 744.668 131.711C745.319 129.367 745.775 127.154 746.035 125.07C746.296 123.378 746.621 121.294 747.012 118.82C747.272 116.607 747.598 113.938 747.988 110.812C748.509 107.557 749.095 103.651 749.746 99.0938C750.397 102.479 751.309 105.409 752.48 107.883C753.783 110.357 755.02 112.505 756.191 114.328C757.624 116.411 758.991 118.169 760.293 119.602C762.246 121.424 764.525 123.117 767.129 124.68C769.863 126.242 772.598 127.609 775.332 128.781C778.066 129.823 780.671 130.474 783.145 130.734C785.618 130.995 787.702 130.734 789.395 129.953C791.087 129.172 792.52 127.74 793.691 125.656C794.993 123.573 795.905 121.294 796.426 118.82C796.947 116.346 797.142 114.003 797.012 111.789C796.882 109.445 796.296 107.557 795.254 106.125C794.473 105.214 792.65 104.042 789.785 102.609C787.051 101.177 783.73 99.6146 779.824 97.9219C776.048 96.2292 772.012 94.4714 767.715 92.6484C763.548 90.8255 759.577 89.0026 755.801 87.1797C752.155 85.2266 749.095 83.4036 746.621 81.7109C744.277 79.888 742.975 78.2604 742.715 76.8281C742.454 74.7448 742.259 72.4661 742.129 69.9922C741.999 67.388 742.129 64.849 742.52 62.375C743.04 59.7708 743.952 57.2969 745.254 54.9531C746.686 52.6094 748.77 50.6562 751.504 49.0938C753.327 48.0521 755.736 47.2708 758.73 46.75C761.725 46.2292 765.046 45.9688 768.691 45.9688C772.337 45.8385 776.113 45.9688 780.02 46.3594C783.926 46.6198 787.637 47.0104 791.152 47.5312C794.798 47.9219 798.053 48.4427 800.918 49.0938C803.913 49.7448 806.191 50.3307 807.754 50.8516C809.577 51.5026 811.53 51.5677 813.613 51.0469C815.436 50.6562 817.389 49.8099 819.473 48.5078C821.556 47.2057 823.704 44.862 825.918 41.4766ZM896.035 60.4219C899.03 60.1615 901.569 59.901 903.652 59.6406C905.866 59.3802 907.689 59.1198 909.121 58.8594C910.814 58.599 912.246 58.3385 913.418 58.0781C914.59 57.9479 915.892 57.6875 917.324 57.2969C918.626 57.0365 920.059 56.7109 921.621 56.3203C923.314 55.7995 925.137 55.2135 927.09 54.5625L925.918 79.3672C928.783 74.8099 932.103 71.3594 935.879 69.0156C939.655 66.5417 943.236 64.7188 946.621 63.5469C950.658 62.1146 954.694 61.2682 958.73 61.0078C962.897 61.138 966.738 61.7891 970.254 62.9609C973.249 64.0026 976.243 65.6302 979.238 67.8438C982.363 70.0573 984.772 73.3125 986.465 77.6094C990.892 73.0521 995.254 69.5365 999.551 67.0625C1003.98 64.4583 1007.88 62.5052 1011.27 61.2031C1015.31 59.7708 1019.08 58.9245 1022.6 58.6641C1027.29 58.5339 1031.58 59.3151 1035.49 61.0078C1039.52 62.7005 1043.04 64.849 1046.04 67.4531C1049.03 69.9271 1051.44 72.5964 1053.26 75.4609C1055.08 78.1953 1056.13 80.6042 1056.39 82.6875C1056.78 85.5521 1056.58 89.263 1055.8 93.8203C1055.02 98.2474 1054.11 102.805 1053.07 107.492C1052.02 112.049 1051.05 116.281 1050.14 120.188C1049.36 123.964 1049.03 126.633 1049.16 128.195C1049.55 129.497 1050.46 131.06 1051.89 132.883C1053.2 134.445 1055.08 136.398 1057.56 138.742C1060.16 140.956 1063.87 143.56 1068.69 146.555C1064.52 146.424 1060.81 146.294 1057.56 146.164C1054.43 146.034 1051.76 145.839 1049.55 145.578C1046.95 145.318 1044.67 145.122 1042.71 144.992C1041.15 144.992 1039.26 144.862 1037.05 144.602C1035.23 144.471 1032.82 144.276 1029.82 144.016C1026.96 143.755 1023.64 143.495 1019.86 143.234C1021.3 142.844 1022.47 142.128 1023.38 141.086C1024.29 139.914 1025.07 138.807 1025.72 137.766C1026.37 136.464 1026.89 135.031 1027.29 133.469C1027.55 132.167 1027.81 130.083 1028.07 127.219C1028.33 124.354 1028.52 121.099 1028.65 117.453C1028.91 113.807 1029.04 109.966 1029.04 105.93C1029.17 101.893 1029.17 98.0521 1029.04 94.4062C1028.91 90.7604 1028.65 87.4401 1028.26 84.4453C1027.87 81.4505 1027.35 79.1719 1026.7 77.6094C1026.18 76.4375 1025.27 75.526 1023.96 74.875C1022.66 74.0938 1021.17 73.638 1019.47 73.5078C1017.78 73.2474 1016.09 73.3125 1014.39 73.7031C1012.7 73.9635 1011.2 74.4844 1009.9 75.2656C1008.73 76.1771 1007.17 77.4141 1005.21 78.9766C1003.52 80.4089 1001.31 82.362 998.574 84.8359C995.84 87.3099 992.389 90.4349 988.223 94.2109C987.832 102.414 987.507 109.055 987.246 114.133C987.116 119.081 986.986 122.857 986.855 125.461C986.725 128.586 986.66 130.734 986.66 131.906C986.53 132.948 986.595 133.924 986.855 134.836C987.116 136.789 987.897 138.612 989.199 140.305C987.637 139.914 985.944 139.654 984.121 139.523C982.428 139.393 980.866 139.263 979.434 139.133C977.741 139.003 976.048 138.938 974.355 138.938C972.923 138.938 971.361 139.003 969.668 139.133C968.236 139.263 966.478 139.458 964.395 139.719C962.311 139.849 960.033 140.044 957.559 140.305C958.6 139.654 959.447 138.872 960.098 137.961C960.749 137.049 961.27 136.203 961.66 135.422C962.181 134.51 962.572 133.664 962.832 132.883C962.962 132.102 963.223 130.214 963.613 127.219C964.004 124.094 964.264 120.448 964.395 116.281C964.525 112.115 964.525 107.753 964.395 103.195C964.264 98.5078 963.809 94.276 963.027 90.5C962.246 86.5938 961.009 83.4036 959.316 80.9297C957.754 78.4557 955.671 77.349 953.066 77.6094C949.941 77.8698 946.751 78.651 943.496 79.9531C940.762 80.9948 937.832 82.5573 934.707 84.6406C931.582 86.724 928.652 89.5234 925.918 93.0391C925.397 102.805 925.072 110.552 924.941 116.281C924.941 122.01 925.007 126.372 925.137 129.367C925.267 132.883 925.397 135.292 925.527 136.594C925.658 137.505 925.983 138.417 926.504 139.328C926.895 140.109 927.35 141.021 927.871 142.062C928.522 143.104 929.238 144.081 930.02 144.992L898.965 143.43C900.007 142.909 900.918 142.258 901.699 141.477C902.48 140.565 903.132 139.654 903.652 138.742C904.173 137.701 904.694 136.659 905.215 135.617C905.605 134.706 905.931 132.557 906.191 129.172C906.582 125.786 906.908 121.815 907.168 117.258C907.428 112.57 907.624 107.688 907.754 102.609C908.014 97.401 908.145 92.5833 908.145 88.1562C908.275 83.599 908.34 79.7578 908.34 76.6328C908.34 73.3776 908.275 71.4245 908.145 70.7734C907.754 69.4714 907.038 68.1042 905.996 66.6719C905.085 65.6302 903.848 64.5234 902.285 63.3516C900.723 62.0495 898.639 61.0729 896.035 60.4219ZM1084.32 73.8984C1084.97 73.1172 1085.36 71.6849 1085.49 69.6016C1085.75 67.388 1086.27 64.9141 1087.05 62.1797C1087.96 59.4453 1089.46 56.5807 1091.54 53.5859C1093.63 50.5911 1097.01 47.7917 1101.7 45.1875C1106.26 42.5833 1110.68 41.0208 1114.98 40.5C1119.28 39.9792 1123.38 40.1745 1127.29 41.0859C1131.19 41.9974 1134.84 43.4297 1138.22 45.3828C1141.74 47.3359 1144.93 49.4844 1147.79 51.8281C1149.75 53.3906 1151.31 55.6693 1152.48 58.6641C1153.65 61.5286 1154.56 64.7839 1155.21 68.4297C1155.87 72.0755 1156.32 75.9167 1156.58 79.9531C1156.97 83.8594 1157.23 87.7005 1157.36 91.4766C1157.49 95.1224 1157.56 98.5078 1157.56 101.633C1157.69 104.628 1157.95 107.102 1158.34 109.055C1158.86 111.919 1159.77 114.393 1161.07 116.477C1162.38 118.43 1163.81 120.122 1165.37 121.555C1166.93 122.857 1168.5 123.898 1170.06 124.68C1171.62 125.461 1172.99 126.047 1174.16 126.438C1174.94 126.828 1175.66 127.089 1176.31 127.219C1177.61 127.74 1178.52 127.74 1179.04 127.219C1178.26 129.042 1177.55 130.604 1176.89 131.906C1176.24 133.208 1175.72 134.315 1175.33 135.227C1174.81 136.268 1174.36 137.115 1173.96 137.766C1173.57 138.547 1173.12 139.263 1172.6 139.914C1172.21 140.565 1171.69 141.281 1171.04 142.062C1170.38 142.844 1169.73 143.69 1169.08 144.602C1167.39 143.951 1165.76 143.169 1164.2 142.258C1162.77 141.346 1161.46 140.5 1160.29 139.719C1158.86 138.807 1157.56 137.896 1156.39 136.984C1155.21 136.073 1154.11 135.031 1153.07 133.859C1152.15 132.818 1151.18 131.711 1150.14 130.539C1149.23 129.367 1148.44 128.065 1147.79 126.633C1147.01 128.326 1145.12 130.734 1142.13 133.859C1139.26 136.984 1135.49 139.849 1130.8 142.453C1126.11 144.927 1120.64 146.685 1114.39 147.727C1108.27 148.768 1101.5 148.052 1094.08 145.578C1090.83 144.536 1087.77 143.039 1084.9 141.086C1082.04 139.003 1079.56 136.529 1077.48 133.664C1075.53 130.799 1074.1 127.544 1073.18 123.898C1072.4 120.122 1072.47 115.956 1073.38 111.398C1074.29 106.841 1075.92 103 1078.26 99.875C1080.61 96.75 1083.4 94.2109 1086.66 92.2578C1089.92 90.3047 1093.56 88.8073 1097.6 87.7656C1101.63 86.724 1105.8 86.0078 1110.1 85.6172C1113.48 85.487 1116.87 85.6823 1120.25 86.2031C1123.12 86.724 1126.11 87.7005 1129.24 89.1328C1132.36 90.4349 1135.03 92.4531 1137.25 95.1875C1137.12 88.2865 1136.86 82.8177 1136.46 78.7812C1136.2 74.6146 1135.94 71.4245 1135.68 69.2109C1135.16 66.6068 1134.71 64.7839 1134.32 63.7422C1133.67 62.8307 1132.95 61.7891 1132.17 60.6172C1131.52 59.4453 1130.67 58.4036 1129.63 57.4922C1128.59 56.4505 1127.29 55.6042 1125.72 54.9531C1124.16 54.3021 1122.34 54.0417 1120.25 54.1719C1118.04 54.3021 1116.28 54.888 1114.98 55.9297C1113.68 56.9714 1112.64 58.2083 1111.86 59.6406C1111.2 60.9427 1110.81 62.375 1110.68 63.9375C1110.55 65.5 1110.62 66.8672 1110.88 68.0391C1111.14 68.8203 1111.53 69.6667 1112.05 70.5781C1112.57 71.3594 1113.29 72.2057 1114.2 73.1172C1115.11 74.0286 1116.35 74.8099 1117.91 75.4609C1114.92 75.8516 1112.25 76.1771 1109.9 76.4375C1107.56 76.5677 1105.54 76.763 1103.85 77.0234C1101.89 77.2839 1100.2 77.4792 1098.77 77.6094C1097.34 77.7396 1095.64 78 1093.69 78.3906C1092 78.651 1089.92 78.9766 1087.44 79.3672C1084.97 79.7578 1082.1 80.2786 1078.85 80.9297C1079.63 80.0182 1080.35 79.1719 1081 78.3906C1081.65 77.4792 1082.23 76.6979 1082.75 76.0469C1083.27 75.2656 1083.8 74.5495 1084.32 73.8984ZM1113.61 97.1406C1111.27 97.2708 1108.93 97.8568 1106.58 98.8984C1104.24 99.8099 1102.15 101.177 1100.33 103C1098.51 104.693 1096.95 106.711 1095.64 109.055C1094.47 111.268 1093.89 113.742 1093.89 116.477C1093.89 119.211 1094.54 121.62 1095.84 123.703C1097.27 125.656 1099.1 127.284 1101.31 128.586C1103.65 129.888 1106.13 130.669 1108.73 130.93C1111.46 131.19 1114.13 130.93 1116.74 130.148C1119.21 129.237 1121.56 127.805 1123.77 125.852C1125.98 123.768 1127.87 121.555 1129.43 119.211C1131 116.737 1132.1 114.328 1132.75 111.984C1133.4 109.51 1133.47 107.492 1132.95 105.93C1131.91 102.544 1129.56 100.201 1125.92 98.8984C1122.27 97.4661 1118.17 96.8802 1113.61 97.1406ZM1174.75 29.9531C1178.65 30.3438 1181.91 30.6693 1184.51 30.9297C1187.25 31.1901 1189.46 31.3854 1191.15 31.5156C1193.11 31.6458 1194.67 31.7109 1195.84 31.7109C1197.01 31.8411 1198.57 31.8411 1200.53 31.7109C1202.22 31.5807 1204.43 31.4505 1207.17 31.3203C1209.9 31.0599 1213.35 30.6693 1217.52 30.1484C1216.61 31.4505 1215.89 32.6224 1215.37 33.6641C1214.85 34.5755 1214.39 35.4219 1214 36.2031L1212.83 38.5469C1212.57 39.3281 1212.31 40.1094 1212.05 40.8906C1211.79 41.5417 1211.53 42.3229 1211.27 43.2344C1211.14 44.1458 1211.01 45.1224 1210.88 46.1641H1240.96L1238.22 61.9844L1210.68 60.4219C1210.03 67.0625 1209.58 72.2057 1209.32 75.8516C1209.06 79.4974 1208.8 82.1667 1208.54 83.8594L1208.14 87.375C1207.75 92.3229 1207.36 97.7266 1206.97 103.586C1206.58 109.315 1206.45 114.654 1206.58 119.602C1206.71 124.549 1207.17 128.716 1207.95 132.102C1208.73 135.357 1210.1 136.984 1212.05 136.984C1214 136.984 1215.83 136.464 1217.52 135.422C1219.21 134.38 1220.64 133.143 1221.82 131.711C1223.12 130.279 1224.1 128.846 1224.75 127.414C1225.4 125.852 1225.72 124.68 1225.72 123.898C1225.72 123.117 1225.53 122.206 1225.14 121.164C1224.49 119.211 1223.31 116.737 1221.62 113.742C1225.4 114.654 1228.72 115.565 1231.58 116.477C1233.01 116.997 1234.32 117.518 1235.49 118.039C1236.79 118.56 1238.29 119.146 1239.98 119.797C1241.41 120.448 1243.24 121.229 1245.45 122.141C1247.66 123.052 1250.27 124.159 1253.26 125.461C1250.4 125.982 1248.31 126.828 1247.01 128C1246.23 128.521 1245.64 129.107 1245.25 129.758C1244.34 131.19 1243.3 133.143 1242.13 135.617C1240.96 137.961 1239.2 140.305 1236.86 142.648C1234.51 144.992 1231.32 147.076 1227.29 148.898C1223.38 150.721 1218.11 151.763 1211.46 152.023C1204.56 152.284 1199.29 151.112 1195.64 148.508C1192.13 145.904 1189.52 142.909 1187.83 139.523C1186.27 136.008 1185.36 132.557 1185.1 129.172C1184.84 125.786 1184.64 123.508 1184.51 122.336C1184.38 121.164 1184.38 118.234 1184.51 113.547C1184.64 108.859 1184.84 103.716 1185.1 98.1172C1185.36 92.388 1185.62 86.9193 1185.88 81.7109C1186.14 76.3724 1186.27 72.4661 1186.27 69.9922C1186.27 68.6901 1186.33 67.3229 1186.46 65.8906C1186.46 64.7188 1186.46 63.4818 1186.46 62.1797C1186.6 60.7474 1186.66 59.3802 1186.66 58.0781L1158.34 57.8828L1157.17 46.75L1185.68 47.5312C1185.42 46.099 1185.1 44.7969 1184.71 43.625C1184.45 42.3229 1184.19 41.2812 1183.93 40.5C1183.54 39.5885 1183.14 38.8073 1182.75 38.1562C1182.23 37.5052 1181.65 36.7891 1181 36.0078C1180.35 35.3568 1179.5 34.5104 1178.46 33.4688C1177.42 32.4271 1176.18 31.2552 1174.75 29.9531ZM1242.91 29.9531C1246.82 30.3438 1250.07 30.6693 1252.68 30.9297C1255.41 31.1901 1257.62 31.3854 1259.32 31.5156C1261.27 31.6458 1262.83 31.7109 1264 31.7109C1265.18 31.8411 1266.74 31.8411 1268.69 31.7109C1270.38 31.5807 1272.6 31.4505 1275.33 31.3203C1278.07 31.0599 1281.52 30.6693 1285.68 30.1484C1284.77 31.4505 1284.06 32.6224 1283.54 33.6641C1283.01 34.5755 1282.56 35.4219 1282.17 36.2031L1281 38.5469C1280.74 39.3281 1280.48 40.1094 1280.21 40.8906C1279.95 41.5417 1279.69 42.3229 1279.43 43.2344C1279.3 44.1458 1279.17 45.1224 1279.04 46.1641H1309.12L1306.39 61.9844L1278.85 60.4219C1278.2 67.0625 1277.74 72.2057 1277.48 75.8516C1277.22 79.4974 1276.96 82.1667 1276.7 83.8594L1276.31 87.375C1275.92 92.3229 1275.53 97.7266 1275.14 103.586C1274.75 109.315 1274.62 114.654 1274.75 119.602C1274.88 124.549 1275.33 128.716 1276.11 132.102C1276.89 135.357 1278.26 136.984 1280.21 136.984C1282.17 136.984 1283.99 136.464 1285.68 135.422C1287.38 134.38 1288.81 133.143 1289.98 131.711C1291.28 130.279 1292.26 128.846 1292.91 127.414C1293.56 125.852 1293.89 124.68 1293.89 123.898C1293.89 123.117 1293.69 122.206 1293.3 121.164C1292.65 119.211 1291.48 116.737 1289.79 113.742C1293.56 114.654 1296.88 115.565 1299.75 116.477C1301.18 116.997 1302.48 117.518 1303.65 118.039C1304.95 118.56 1306.45 119.146 1308.14 119.797C1309.58 120.448 1311.4 121.229 1313.61 122.141C1315.83 123.052 1318.43 124.159 1321.43 125.461C1318.56 125.982 1316.48 126.828 1315.18 128C1314.39 128.521 1313.81 129.107 1313.42 129.758C1312.51 131.19 1311.46 133.143 1310.29 135.617C1309.12 137.961 1307.36 140.305 1305.02 142.648C1302.68 144.992 1299.49 147.076 1295.45 148.898C1291.54 150.721 1286.27 151.763 1279.63 152.023C1272.73 152.284 1267.45 151.112 1263.81 148.508C1260.29 145.904 1257.69 142.909 1256 139.523C1254.43 136.008 1253.52 132.557 1253.26 129.172C1253 125.786 1252.81 123.508 1252.68 122.336C1252.55 121.164 1252.55 118.234 1252.68 113.547C1252.81 108.859 1253 103.716 1253.26 98.1172C1253.52 92.388 1253.78 86.9193 1254.04 81.7109C1254.3 76.3724 1254.43 72.4661 1254.43 69.9922C1254.43 68.6901 1254.5 67.3229 1254.63 65.8906C1254.63 64.7188 1254.63 63.4818 1254.63 62.1797C1254.76 60.7474 1254.82 59.3802 1254.82 58.0781L1226.5 57.8828L1225.33 46.75L1253.85 47.5312C1253.59 46.099 1253.26 44.7969 1252.87 43.625C1252.61 42.3229 1252.35 41.2812 1252.09 40.5C1251.7 39.5885 1251.31 38.8073 1250.92 38.1562C1250.4 37.5052 1249.81 36.7891 1249.16 36.0078C1248.51 35.3568 1247.66 34.5104 1246.62 33.4688C1245.58 32.4271 1244.34 31.2552 1242.91 29.9531ZM1364.2 121.555C1367.85 121.555 1371.23 121.164 1374.36 120.383C1376.96 119.732 1379.43 118.69 1381.78 117.258C1384.25 115.695 1385.88 113.417 1386.66 110.422C1389.26 110.943 1391.48 111.398 1393.3 111.789C1395.12 112.049 1396.69 112.31 1397.99 112.57C1399.42 112.961 1400.66 113.221 1401.7 113.352C1402.74 113.612 1403.98 113.872 1405.41 114.133C1406.71 114.393 1408.27 114.719 1410.1 115.109C1412.05 115.37 1414.33 115.76 1416.93 116.281C1414.98 116.021 1412.96 116.216 1410.88 116.867C1408.93 117.518 1407.04 118.234 1405.21 119.016C1403.13 119.927 1401.18 121.034 1399.36 122.336C1398.18 123.117 1396.82 124.289 1395.25 125.852C1393.82 127.414 1391.74 128.911 1389 130.344C1386.27 131.776 1382.62 133.013 1378.07 134.055C1373.64 134.966 1367.91 135.292 1360.88 135.031C1352.42 134.771 1345.32 133.273 1339.59 130.539C1333.86 127.674 1329.24 124.224 1325.72 120.188C1322.21 116.021 1319.67 111.529 1318.11 106.711C1316.54 101.893 1315.7 97.401 1315.57 93.2344C1315.44 89.0677 1316.67 84.7057 1319.28 80.1484C1321.88 75.5911 1325.53 71.4245 1330.21 67.6484C1335.03 63.8724 1340.83 60.8125 1347.6 58.4688C1354.37 55.9948 1361.79 54.7578 1369.86 54.7578C1374.55 54.7578 1378.85 55.3438 1382.75 56.5156C1386.79 57.5573 1390.44 58.9896 1393.69 60.8125C1397.08 62.6354 1400.01 64.7188 1402.48 67.0625C1404.95 69.276 1407.04 71.5547 1408.73 73.8984C1410.42 76.3724 1411.86 78.9766 1413.03 81.7109C1414.07 84.0547 1414.92 86.724 1415.57 89.7188C1416.22 92.7135 1416.41 95.7734 1416.15 98.8984C1406.26 99.1589 1398.25 99.3542 1392.13 99.4844C1386.14 99.6146 1381.45 99.6797 1378.07 99.6797H1369.28H1362.64C1360.29 99.6797 1357.23 99.7448 1353.46 99.875C1349.68 100.005 1345.06 100.201 1339.59 100.461C1340.24 105.669 1341.87 109.706 1344.47 112.57C1347.21 115.305 1350.07 117.388 1353.07 118.82C1356.45 120.383 1360.16 121.294 1364.2 121.555ZM1346.62 86.3984C1350.79 86.6589 1354.24 86.8542 1356.97 86.9844C1359.84 87.1146 1362.18 87.2448 1364 87.375C1365.96 87.5052 1367.52 87.5703 1368.69 87.5703H1373.57C1376.83 87.5703 1382.88 87.375 1391.74 86.9844C1391.35 81.2552 1390.11 76.8932 1388.03 73.8984C1386.07 70.9036 1383.99 68.6901 1381.78 67.2578C1379.17 65.6953 1376.31 64.7839 1373.18 64.5234C1364.72 64.6536 1358.4 66.4115 1354.24 69.7969C1350.2 73.1823 1347.66 78.7161 1346.62 86.3984ZM1422.01 59.4453C1424.49 59.5755 1426.7 59.6406 1428.65 59.6406C1430.74 59.5104 1432.49 59.3802 1433.93 59.25C1435.62 59.1198 1437.12 58.9896 1438.42 58.8594C1440.37 58.599 1442.39 58.2734 1444.47 57.8828C1446.3 57.6224 1448.18 57.2969 1450.14 56.9062C1452.22 56.3854 1454.24 55.7995 1456.19 55.1484C1455.41 57.1016 1454.76 58.7943 1454.24 60.2266C1453.72 61.6589 1453.33 62.8958 1453.07 63.9375C1452.68 65.1094 1452.48 66.0859 1452.48 66.8672C1452.35 67.7786 1452.29 68.8854 1452.29 70.1875C1452.15 72.401 1452.15 75.9818 1452.29 80.9297C1459.06 75.0703 1464.72 70.513 1469.28 67.2578C1473.96 64.0026 1477.68 61.4635 1480.41 59.6406C1483.67 57.5573 1486.2 56.1901 1488.03 55.5391C1492.85 54.7578 1497.08 55.8646 1500.72 58.8594C1502.29 60.1615 1503.78 61.9193 1505.21 64.1328C1506.65 66.2161 1507.88 69.0156 1508.93 72.5312C1509.97 76.0469 1510.75 80.2786 1511.27 85.2266C1511.79 90.0443 1511.86 95.8385 1511.46 102.609C1508.73 102.87 1506.26 103.13 1504.04 103.391C1501.96 103.651 1500.2 103.846 1498.77 103.977C1497.08 104.237 1495.51 104.367 1494.08 104.367L1488.81 104.953C1486.99 105.214 1484.71 105.474 1481.97 105.734C1479.37 105.865 1476.18 106.125 1472.4 106.516C1477.87 102.089 1481.39 98.2474 1482.95 94.9922C1484.64 91.6068 1485.36 88.8073 1485.1 86.5938C1484.84 84.1198 1483.67 81.9714 1481.58 80.1484C1479.11 78.7161 1476.44 78.1953 1473.57 78.5859C1471.1 78.8464 1468.24 79.9531 1464.98 81.9062C1461.73 83.8594 1458.27 87.5052 1454.63 92.8438C1454.89 101.177 1455.15 108.078 1455.41 113.547C1455.8 119.016 1456.13 123.443 1456.39 126.828C1456.78 130.734 1457.1 133.794 1457.36 136.008C1457.75 137.961 1458.54 140.044 1459.71 142.258C1460.62 144.081 1461.92 146.099 1463.61 148.312C1465.31 150.526 1467.52 152.74 1470.25 154.953C1464.52 154.693 1459.84 154.693 1456.19 154.953C1453.98 155.083 1452.02 155.214 1450.33 155.344C1448.51 155.604 1446.56 155.865 1444.47 156.125C1442.65 156.385 1440.5 156.646 1438.03 156.906C1435.68 157.297 1433.08 157.688 1430.21 158.078C1431.26 156.646 1432.1 154.953 1432.75 153C1433.4 151.177 1433.93 149.419 1434.32 147.727C1434.84 145.773 1435.23 143.755 1435.49 141.672C1435.62 139.849 1435.68 137.115 1435.68 133.469C1435.81 129.823 1435.75 125.721 1435.49 121.164C1435.36 116.477 1435.16 111.659 1434.9 106.711C1434.64 101.633 1434.32 96.8802 1433.93 92.4531C1433.54 88.026 1433.08 84.1849 1432.56 80.9297C1432.17 77.5443 1431.71 75.2005 1431.19 73.8984C1430.54 72.3359 1429.76 70.7734 1428.85 69.2109C1428.07 67.7786 1427.09 66.2812 1425.92 64.7188C1424.75 63.026 1423.44 61.2682 1422.01 59.4453Z" fill="white"/>
</svg>
